<svg width="20" height="20" viewBox="0 0 20 20" fill="none" xmlns="http://www.w3.org/2000/svg">
<path fill-rule="evenodd" clip-rule="evenodd" d="M18.9545 13.8954C18.8045 13.8954 18.6818 13.7722 18.6818 13.6227V5.31598C15.5476 4.96471 13.2409 5.22925 11.0094 5.48562C8.73927 5.7458 6.39272 6.01471 3.23945 5.61762C3.08999 5.59853 2.98417 5.46216 3.00272 5.31216C3.02127 5.16325 3.15927 5.06071 3.30763 5.07544C6.39504 5.46484 8.60559 5.21132 10.9452 4.943L10.9462 4.94289L10.9498 4.94247C13.2702 4.67697 15.6683 4.40256 18.9873 4.80216C19.1247 4.81853 19.2267 4.93525 19.2267 5.0738V13.6227C19.2273 13.7722 19.1045 13.8954 18.9545 13.8954ZM17.0454 14.7136C17.0454 14.8631 17.1682 14.9863 17.3182 14.9863C17.4682 14.9863 17.5909 14.8631 17.5909 14.712V6.42544C17.5909 6.28853 17.4894 6.17289 17.3531 6.15489C14.3391 5.75852 11.9251 5.99433 9.59207 6.22224L9.58908 6.22253C7.22999 6.45325 4.79181 6.69162 1.67017 6.2978C1.52235 6.28144 1.38435 6.38562 1.36526 6.53453C1.34672 6.68507 1.45253 6.82144 1.60199 6.83998C4.78362 7.2398 7.25399 6.9998 9.64199 6.76635L9.64838 6.76572C11.9926 6.53686 14.2089 6.32048 17.0454 6.66653V14.7136ZM3.74072 16.3985C2.60072 16.3985 1.49944 16.3271 0.37308 16.1787C0.237807 16.1618 0.136353 16.0462 0.136353 15.9087V7.7258C0.136353 7.64725 0.170171 7.57307 0.22908 7.52071C0.287989 7.46889 0.365989 7.44489 0.444534 7.45525C1.54744 7.60144 2.62744 7.67125 3.74563 7.67125C5.24096 7.67125 6.58398 7.54757 8.00364 7.41683L8.02472 7.41489C9.4669 7.2818 10.9571 7.14435 12.6322 7.14435C13.848 7.14435 15.0327 7.21635 16.2589 7.36362C16.3953 7.37998 16.4984 7.49671 16.4984 7.63471V15.8171C16.4984 15.8962 16.464 15.9693 16.4067 16.0211C16.3484 16.0734 16.2698 16.0974 16.1924 16.0876C14.9874 15.9414 13.8202 15.8716 12.6278 15.8716C10.9778 15.8716 9.49963 16.008 8.06999 16.14C6.69381 16.2676 5.27017 16.3985 3.74072 16.3985ZM0.681809 15.6693C1.70181 15.7942 2.7049 15.8547 3.74072 15.8547C5.24162 15.8547 6.58767 15.7303 8.01259 15.5986L8.01262 15.5986L8.0209 15.5978C9.46308 15.4647 10.9533 15.3273 12.6294 15.3273C13.7438 15.3273 14.8347 15.3873 15.9545 15.5116V7.87744C14.8347 7.75198 13.7454 7.6898 12.6322 7.6898C10.9827 7.6898 9.50454 7.82616 8.0749 7.95816L8.04327 7.96107L8.04326 7.96107C6.67635 8.08672 5.26229 8.21671 3.74563 8.21671C2.70817 8.21671 1.70235 8.1578 0.681809 8.03507V15.6693ZM1.66307 14.9503C2.37489 15.0082 3.0638 15.036 3.76962 15.036C3.92017 15.036 4.04235 14.9143 4.04235 14.7633C4.04235 14.6133 3.92017 14.4905 3.76962 14.4905C3.07853 14.4905 2.4038 14.4633 1.70726 14.4065C1.55562 14.3967 1.42526 14.508 1.41326 14.6563C1.40126 14.8069 1.51307 14.9389 1.66307 14.9503ZM14.64 9.13744C14.6318 9.13744 14.6253 9.13744 14.6176 9.13689C13.9249 9.08016 13.2507 9.05398 12.5531 9.05398C12.4031 9.05398 12.2804 8.93125 12.2804 8.78125C12.2804 8.63071 12.4031 8.50853 12.5531 8.50853C13.266 8.50853 13.9538 8.53635 14.6613 8.59307C14.8102 8.60453 14.9225 8.73653 14.9105 8.88707C14.8985 9.02944 14.7807 9.13744 14.64 9.13744ZM8.12235 13.185V13.6227C8.12235 13.7722 8.00017 13.8954 7.84963 13.8954C7.69963 13.8954 7.5769 13.7722 7.5769 13.6227V13.1851C7.10155 13.0929 6.79799 12.7553 6.79799 12.288C6.79799 12.1385 6.92018 12.0153 7.07072 12.0153C7.22127 12.0153 7.34345 12.1385 7.34345 12.288C7.34345 12.6289 7.69745 12.6649 7.84963 12.6649C8.00181 12.6649 8.35636 12.6289 8.35636 12.288C8.35636 12.0823 8.31381 12.0431 7.85345 11.8162L7.60418 11.6923L7.60216 11.6913C7.15257 11.4693 6.79745 11.2939 6.79745 10.7307C6.79745 10.2681 7.10735 9.92311 7.57796 9.82806C7.57726 9.82012 7.5769 9.81209 7.5769 9.80398V9.25853C7.5769 9.10798 7.69963 8.9858 7.84963 8.9858C8.00017 8.9858 8.12235 9.10798 8.12235 9.25853V9.80398C8.12235 9.81196 8.12201 9.81986 8.12133 9.82768C8.59084 9.92123 8.89036 10.2613 8.89036 10.7307C8.89036 10.8807 8.76818 11.0034 8.61763 11.0034C8.46708 11.0034 8.3449 10.8807 8.3449 10.7307C8.3449 10.3843 7.99799 10.3473 7.84908 10.3473C7.73018 10.3473 7.3429 10.3751 7.3429 10.7307C7.3429 10.9358 7.38545 10.9756 7.84527 11.2025L8.09454 11.3269C8.54563 11.5483 8.90181 11.7245 8.90181 12.288C8.90135 12.7548 8.5974 13.0927 8.12235 13.185Z" fill="#FFC620"/>
</svg>
