<svg width="20" height="20" viewBox="0 0 20 20" fill="none" xmlns="http://www.w3.org/2000/svg">
<path fill-rule="evenodd" clip-rule="evenodd" d="M8.66182 12.1905C7.64133 11.3848 6.94009 10.023 6.8596 8.7769C6.43524 8.66181 6.10524 8.28162 6.10524 7.85781V6.49417C6.10524 6.10526 6.44779 5.80635 6.6507 5.66344V4.44871C6.6507 3.14726 7.55997 2.16108 8.77524 2.13108C9.02288 2.02853 10.0761 1.6189 11.1507 1.6189C12.8214 1.6189 13.7416 2.62417 13.7416 4.44871V5.54671C14.6503 5.59853 14.8325 5.92744 14.8325 6.49417V7.85781C14.8325 8.30344 14.5712 8.65962 14.1922 8.77362C14.0776 10.7356 12.534 12.9038 10.5665 12.9038C10.0501 12.9038 9.55901 12.7535 9.11298 12.4971C9.11222 12.4983 9.11146 12.4995 9.11069 12.5007L8.1016 14.0744C8.05142 14.1529 7.96524 14.1993 7.87196 14.1993H6.84924C5.28815 14.1993 3.71287 15.0213 3.71287 16.8584C3.71287 17.0094 3.59069 17.1311 3.44015 17.1311C3.2896 17.1311 3.16742 17.0089 3.16742 16.8584C3.16742 14.9411 4.64669 13.6538 6.84924 13.6538H7.72305L8.65142 12.2056C8.65474 12.2004 8.65821 12.1954 8.66182 12.1905ZM11.1507 2.1649C10.0874 2.1649 9.00746 2.62546 8.94542 2.65192L8.9427 2.65308C8.90833 2.6689 8.8707 2.67653 8.83252 2.67653C7.88452 2.67653 7.19615 3.42217 7.19615 4.44926V5.8129C7.19615 5.91108 7.1427 6.00217 7.05761 6.05071C6.88688 6.14726 6.6507 6.35562 6.6507 6.49471V7.85835C6.6507 8.06835 6.88088 8.26744 7.1247 8.26744C7.27524 8.26744 7.39742 8.38962 7.39742 8.54017C7.39742 10.2698 8.81124 12.3584 10.5665 12.3584C12.2771 12.3584 13.6543 10.2693 13.6543 8.54017C13.6543 8.38962 13.7765 8.26744 13.9271 8.26744C14.1742 8.26744 14.2871 8.05526 14.2871 7.85835V6.49471C14.2871 6.20508 14.2871 6.08562 13.4689 6.08562C13.3183 6.08562 13.1962 5.96344 13.1962 5.8129V4.44926C13.1962 2.91217 12.5269 2.1649 11.1507 2.1649ZM15.378 16.9265C15.378 17.0771 15.5001 17.1993 15.6507 17.1993C15.8012 17.1993 15.9234 17.0776 15.9234 16.9265V15.2902H17.5598C17.7103 15.2902 17.8325 15.168 17.8325 15.0174C17.8325 14.8669 17.7098 14.7447 17.5598 14.7447H15.9234V13.1084C15.9234 12.9578 15.8007 12.8356 15.6507 12.8356C15.5001 12.8356 15.378 12.9578 15.378 13.1084V14.7447H13.7416C13.5911 14.7447 13.4689 14.8669 13.4689 15.0174C13.4689 15.168 13.5911 15.2902 13.7416 15.2902H15.378V16.9265Z" fill="#663399"/>
</svg>
