<svg width="20" height="20" viewBox="0 0 20 20" fill="none" xmlns="http://www.w3.org/2000/svg">
<path fill-rule="evenodd" clip-rule="evenodd" d="M9.42383 17.1736C5.12728 17.1736 1.63146 13.686 1.63146 9.4009C1.63146 5.30017 4.95601 1.82127 9.04201 1.64454C9.11619 1.64181 9.18874 1.66854 9.24219 1.71981C9.29619 1.77163 9.32619 1.84254 9.32619 1.91672V8.74581L14.352 3.75599C14.4562 3.65236 14.6247 3.65072 14.7306 3.75054C16.314 5.24345 17.1862 7.25017 17.1862 9.4009C17.1873 13.6865 13.704 17.1736 9.42383 17.1736ZM8.78074 2.2069C5.11365 2.51617 2.17692 5.68417 2.17692 9.40036C2.17692 13.3854 5.42783 16.6276 9.42383 16.6276C13.4035 16.6276 16.6413 13.3854 16.6413 9.40036C16.6413 7.48854 15.8995 5.6989 14.5456 4.33145L9.24546 9.59345C9.16692 9.67145 9.04965 9.6949 8.94819 9.65127C8.84619 9.60872 8.78019 9.50999 8.78019 9.39981L8.78074 2.2069ZM10.1444 6.65617C10.11 6.65617 10.074 6.64963 10.0407 6.63545C9.93874 6.59345 9.87164 6.49363 9.87164 6.38345V1.96581C9.87164 1.88617 9.90601 1.81199 9.96546 1.76072C10.0238 1.70836 10.1029 1.68436 10.1815 1.69527C11.3607 1.85454 12.5782 2.30672 13.518 2.93399C13.5862 2.97927 13.6304 3.0529 13.638 3.13417C13.6462 3.2149 13.6178 3.29617 13.5595 3.35399L10.3375 6.57545C10.2846 6.62836 10.2158 6.65617 10.1444 6.65617ZM10.4171 2.2849V5.72508L12.9316 3.21054C12.1898 2.7709 11.3024 2.44417 10.4171 2.2849Z" fill="#5DAE49"/>
</svg>
