<svg width="20" height="20" viewBox="0 0 20 20" fill="none" xmlns="http://www.w3.org/2000/svg">
<path fill-rule="evenodd" clip-rule="evenodd" d="M14.602 5.16925H12.6929C12.1665 5.16925 11.7384 4.74106 11.7384 4.2147V3.94197C11.7384 3.41561 12.1665 2.98743 12.6929 2.98743H14.602C15.1284 2.98743 15.5565 3.41561 15.5565 3.94197V4.2147C15.5565 4.74052 15.1278 5.16925 14.602 5.16925ZM12.6929 3.53288C12.4671 3.53288 12.2838 3.71615 12.2838 3.94197V4.2147C12.2838 4.44052 12.4671 4.62379 12.6929 4.62379H14.602C14.8278 4.62379 15.0111 4.44052 15.0111 4.2147V3.94197C15.0111 3.71615 14.8278 3.53288 14.602 3.53288H12.6929ZM6.01109 16.0783H2.19291C2.04236 16.0783 1.92018 15.9556 1.92018 15.8056V9.80561C1.92018 9.65506 2.04236 9.53288 2.19291 9.53288H6.01109C6.16164 9.53288 6.28382 9.65506 6.28382 9.80561V10.6266C8.27251 10.6856 9.28501 11.3351 9.96018 11.7687L9.96109 11.7693C10.2737 11.9703 10.4998 12.1156 10.6873 12.1156C10.768 12.1156 10.8665 12.1119 10.9777 12.1077L11.0282 12.1058C11.8567 12.0742 13.1096 12.0294 13.6638 12.6682C13.8345 12.8645 13.9213 13.1029 13.9235 13.3805C14.4108 13.3413 15.0376 12.8286 15.5555 12.405L15.5565 12.4042L15.5611 12.4005C16.1055 11.9555 16.5362 11.6034 16.9316 11.6034C17.836 11.6034 18.3542 12.1374 18.3542 13.0696C18.3525 14.3945 13.474 16.9216 11.4755 16.9216C10.3219 16.9216 8.884 16.2429 7.7269 15.6968L7.72164 15.6943L7.71793 15.6926C7.16731 15.4327 6.6398 15.1838 6.28382 15.0784V15.8056C6.28382 15.9556 6.16109 16.0783 6.01109 16.0783ZM5.73837 14.8311V15.5329H2.46564V10.0783H5.73837V14.6745C5.73091 14.6993 5.72691 14.7256 5.72691 14.7529C5.72691 14.78 5.73091 14.8063 5.73837 14.8311ZM6.28382 14.5161C6.70308 14.61 7.27158 14.8782 7.95455 15.2007C9.06346 15.7249 10.4435 16.3762 11.476 16.3762C13.4031 16.3762 17.8082 13.914 17.8082 13.0691C17.8082 12.4412 17.5289 12.1483 16.9305 12.1483C16.7303 12.1483 16.276 12.5196 15.9072 12.821L15.9013 12.8258C15.166 13.428 14.3336 14.1087 13.5531 13.8845C13.5353 13.8795 13.5184 13.8728 13.5025 13.8646C13.4644 13.885 13.4209 13.8965 13.3747 13.8965H9.01109C8.86055 13.8965 8.73836 13.7738 8.73836 13.6238C8.73836 13.4738 8.86055 13.3511 9.01109 13.3511H13.3747L13.3765 13.3511C13.3696 13.2201 13.3285 13.1125 13.252 13.0249C12.8709 12.5839 11.6914 12.6264 11.0539 12.6494L11.0478 12.6496L10.9656 12.6526C10.8601 12.6565 10.7662 12.66 10.6878 12.66C10.3418 12.66 10.0451 12.4701 9.67045 12.2305L9.66564 12.2274L9.66546 12.2273C9.0059 11.8037 8.10974 11.2281 6.28382 11.1722V14.5161ZM9.42019 7.89652H11.3293C11.8551 7.89652 12.2838 7.46779 12.2838 6.94197V6.66925C12.2838 6.14288 11.8556 5.7147 11.3293 5.7147H9.42019C8.89382 5.7147 8.46564 6.14288 8.46564 6.66925V6.94197C8.46564 7.46834 8.89382 7.89652 9.42019 7.89652ZM9.0111 6.66925C9.0111 6.44343 9.19437 6.26015 9.42019 6.26015H11.3293C11.5551 6.26015 11.7384 6.44343 11.7384 6.66925V6.94197C11.7384 7.16779 11.5551 7.35106 11.3293 7.35106H9.42019C9.19437 7.35106 9.0111 7.16779 9.0111 6.94197V6.66925ZM14.602 10.6238H12.6929C12.1665 10.6238 11.7384 10.1956 11.7384 9.66924V9.39652C11.7384 8.87015 12.1665 8.44197 12.6929 8.44197H14.602C15.1284 8.44197 15.5565 8.87015 15.5565 9.39652V9.66924C15.5565 10.1951 15.1278 10.6238 14.602 10.6238ZM12.6929 8.98743C12.4671 8.98743 12.2838 9.1707 12.2838 9.39652V9.66924C12.2838 9.89506 12.4671 10.0783 12.6929 10.0783H14.602C14.8278 10.0783 15.0111 9.89506 15.0111 9.66924V9.39652C15.0111 9.1707 14.8278 8.98743 14.602 8.98743H12.6929Z" fill="#3981F7"/>
</svg>
